<?xml version="1.0" standalone="no"?>
<!DOCTYPE svg PUBLIC "-//W3C//DTD SVG 20010904//EN"
 "http://www.w3.org/TR/2001/REC-SVG-20010904/DTD/svg10.dtd">
<svg version="1.0" xmlns="http://www.w3.org/2000/svg"
 width="478.000000pt" height="364.000000pt" viewBox="0 0 478.000000 364.000000"
 preserveAspectRatio="xMidYMid meet">

<g transform="translate(0.000000,364.000000) scale(0.100000,-0.100000)"
fill="#000000" stroke="none">
<path d="M2625 3619 c-447 -32 -889 -156 -1295 -361 -610 -309 -1012 -725
-1171 -1211 -47 -143 -50 -173 -5 -57 64 169 174 350 301 499 l60 70 5 -50
c10 -90 83 -127 198 -101 47 11 49 8 27 -45 -20 -48 -19 -63 5 -63 13 0 25 10
32 28 6 15 28 64 49 110 35 77 40 82 68 82 41 0 40 16 -1 29 -86 27 -202 51
-219 46 -32 -11 -14 -21 61 -34 38 -7 72 -17 75 -22 4 -5 -3 -29 -14 -53 -17
-39 -25 -46 -62 -56 -90 -24 -179 14 -179 78 0 46 52 117 112 152 48 28 60 30
126 28 39 -2 72 0 72 3 0 12 -64 33 -100 34 -19 0 -48 -3 -65 -8 -30 -7 -30
-7 10 28 153 134 391 287 640 410 443 219 876 327 1362 342 214 7 196 -1 208
86 l6 47 -98 -1 c-54 -1 -147 -5 -208 -10z"/>
<path d="M2895 3253 c-291 -25 -611 -112 -937 -255 -136 -59 -137 -60 -143
-96 -3 -21 -8 -49 -10 -65 l-5 -27 48 24 c82 41 233 103 357 146 533 183 1023
206 1450 65 397 -130 714 -379 903 -709 95 -166 145 -341 159 -560 l7 -121 9
80 c10 94 2 249 -19 355 -104 548 -601 1004 -1236 1134 -154 31 -411 44 -583
29z"/>
<path d="M1005 2536 c-65 -40 -104 -130 -85 -197 20 -70 114 -129 207 -129 44
0 58 5 87 30 41 36 76 107 76 153 0 19 -10 49 -23 68 -61 90 -181 125 -262 75z
m161 -32 c81 -39 114 -116 79 -184 -38 -73 -115 -95 -199 -57 -82 38 -104 93
-70 176 29 73 113 101 190 65z"/>
<path d="M1494 2462 c-5 -4 -27 -47 -48 -97 -21 -49 -59 -130 -83 -179 -35
-70 -42 -91 -31 -97 22 -14 28 -10 44 29 31 74 114 245 118 241 6 -6 62 -230
77 -307 15 -80 38 -97 67 -49 11 17 39 77 62 132 23 55 51 120 61 144 22 52
24 81 5 81 -20 0 -28 -13 -86 -140 -29 -63 -56 -119 -60 -123 -4 -5 -24 60
-44 145 -57 241 -56 238 -82 220z"/>
<path d="M1326 2338 c-75 -163 -90 -218 -58 -218 8 0 132 285 132 303 0 4 -7
7 -16 7 -10 0 -31 -33 -58 -92z"/>
<path d="M1777 2253 c-15 -14 -5 -24 53 -53 l60 -30 -65 -130 c-49 -97 -61
-130 -50 -131 8 -1 19 -2 24 -3 6 -1 35 49 65 109 30 61 59 116 64 123 7 10
25 6 84 -18 87 -34 94 -35 101 -15 7 17 7 18 -63 40 -30 10 -99 40 -152 66
-100 50 -110 54 -121 42z"/>
<path d="M2088 1980 c-38 -87 -68 -163 -68 -168 0 -11 281 -101 298 -94 6 2
12 7 12 11 0 3 -58 26 -130 50 -71 24 -130 45 -130 46 0 2 9 24 19 49 l20 45
50 -14 c28 -8 74 -22 103 -30 28 -8 55 -15 60 -15 16 0 8 29 -9 34 -129 36
-193 59 -193 69 0 7 13 37 28 67 31 64 30 64 145 19 72 -29 125 -33 100 -8 -9
9 -221 99 -233 99 -3 0 -35 -72 -72 -160z"/>
<path d="M2480 1974 c-6 -14 -10 -28 -10 -31 0 -3 -22 -59 -50 -124 -55 -130
-60 -159 -32 -159 14 0 26 17 43 60 13 33 27 60 30 60 12 0 53 -53 120 -153
35 -54 72 -98 83 -101 48 -13 33 18 -83 163 -50 63 -91 118 -91 122 0 5 51 6
113 2 120 -6 157 2 157 35 0 43 -131 122 -203 122 -24 0 -40 5 -43 15 -9 23
-23 18 -34 -11z m181 -70 c33 -15 59 -30 59 -35 0 -17 -41 -29 -103 -29 -100
0 -127 8 -127 37 0 13 5 34 11 45 9 18 17 20 56 14 25 -3 72 -18 104 -32z"/>
<path d="M2889 1843 c-21 -55 -73 -171 -115 -254 -43 -87 -45 -99 -14 -99 12
0 30 30 59 98 23 53 52 117 65 141 27 52 20 68 71 -154 40 -174 45 -189 66
-193 20 -4 41 36 114 211 45 106 61 155 54 164 -20 23 -36 1 -95 -127 -32 -72
-62 -130 -65 -130 -3 0 -22 73 -43 163 -21 89 -42 172 -46 185 -13 30 -38 28
-51 -5z"/>
<path d="M77 1636 c-20 -224 17 -446 105 -621 112 -220 373 -462 651 -601 329
-166 769 -287 1296 -356 221 -29 649 -32 841 -5 373 53 719 174 975 344 339
225 584 531 694 870 40 126 48 174 11 79 -148 -391 -447 -714 -850 -921 -558
-285 -1234 -341 -2070 -170 -580 118 -1003 306 -1276 568 -122 116 -182 196
-249 332 -71 142 -104 270 -113 435 l-7 125 -8 -79z"/>
<path d="M3202 1585 c-41 -30 -25 -54 90 -135 59 -41 107 -80 108 -87 0 -20
-69 -36 -136 -30 -73 5 -127 33 -132 66 -2 14 -9 21 -19 19 -29 -5 -25 -28 9
-62 42 -42 90 -56 194 -56 67 0 86 4 108 21 14 11 26 27 26 35 0 8 -49 53
-110 101 -85 68 -107 90 -98 100 14 17 68 16 143 -2 72 -17 115 -19 115 -4 0
22 -76 42 -175 46 -82 4 -104 2 -123 -12z"/>
<path d="M3622 1548 c-5 -7 -26 -45 -46 -85 -20 -40 -45 -77 -57 -83 -11 -7
-18 -17 -15 -25 2 -7 -4 -46 -15 -86 -10 -41 -19 -75 -19 -77 0 -2 10 -2 22 0
13 2 24 11 26 23 2 11 13 41 24 68 18 40 24 47 49 47 28 0 106 -26 123 -41 5
-5 2 -33 -8 -67 -20 -73 -20 -108 0 -116 28 -11 31 -7 37 42 3 26 31 112 61
191 31 79 53 148 50 152 -15 24 -35 1 -68 -81 -36 -86 -39 -90 -64 -84 -26 7
-134 44 -140 49 -1 1 13 39 33 83 19 44 35 85 35 91 0 15 -15 14 -28 -1z"/>
<path d="M3846 1245 c-65 -144 -75 -179 -53 -188 12 -4 29 27 76 137 71 168
71 169 50 173 -12 3 -30 -27 -73 -122z"/>
<path d="M4001 1304 c-23 -16 -125 -216 -133 -259 -2 -12 3 -21 15 -23 13 -3
24 11 43 55 14 32 27 59 28 60 0 1 28 -7 60 -18 123 -42 257 -22 273 40 10 41
-17 73 -97 113 -92 46 -155 57 -189 32z m171 -55 c111 -56 84 -139 -41 -126
-70 8 -148 34 -155 52 -7 18 34 77 64 92 30 15 80 8 132 -18z"/>
</g>
</svg>
